<svg width="83" height="58" viewBox="0 0 83 58" fill="none" xmlns="http://www.w3.org/2000/svg">
<path d="M18.1215 10.5612C11.5051 22.4961 6.03391 35.9578 5.85577 40.7929C5.75398 43.5158 5.80488 43.7448 6.92457 44.8136C7.86613 45.7297 8.06971 45.8061 9.01127 45.6788C10.4618 45.4752 11.3524 44.381 12.9811 40.6402C15.0932 35.8306 16.7982 33.8457 20.1573 32.2679C21.6078 31.6063 25.2977 30.7156 25.5267 31.021C25.5776 31.0719 26.9518 34.3292 28.5805 38.2481L31.5324 45.3734L33.6954 45.4498C34.8915 45.5007 35.8839 45.4243 35.8839 45.3226C35.8839 44.8136 20.1828 7.99096 19.9283 7.91462C19.7756 7.86372 18.9613 9.05976 18.1215 10.5612ZM21.4551 21.4527C23.5164 26.2878 25.145 30.3594 25.0687 30.4866C24.9923 30.6393 24.6106 30.7411 24.2289 30.7411C22.1677 30.7411 18.7068 32.2679 16.7728 33.9984C15.1441 35.4489 14.0244 37.2302 12.3704 40.9201C11.6069 42.6251 10.7926 44.2283 10.5381 44.5082C9.57112 45.577 7.33173 45.2462 6.5683 43.8975C6.39017 43.5667 6.26293 42.447 6.26293 41.1746C6.26293 38.5789 7.05181 35.5761 9.03672 30.4866C11.1234 25.1172 17.0527 12.6733 17.5108 12.6733C17.6126 12.6733 19.3939 16.6177 21.4551 21.4527Z" fill="black"/>
<path d="M47.5898 8.01585C47.5898 8.57569 63.291 45.4747 63.4946 45.4238C63.6473 45.3729 65.6831 40.7669 68.0242 35.1684C70.3909 29.5954 73.9535 21.1468 75.9639 16.4135C77.9488 11.7057 79.4502 7.83771 79.2975 7.83771C79.1448 7.83771 76.1675 14.6322 72.6812 22.9281C69.1694 31.1986 66.1411 38.4511 65.8866 39.011L65.454 40.0289L64.7161 38.3748C64.3089 37.4587 61.2297 30.2316 57.8707 22.2919L51.7887 7.83771H49.702C48.5314 7.83771 47.5898 7.91405 47.5898 8.01585Z" fill="black"/>
</svg>
