<svg width="54" height="28" viewBox="0 0 54 28" fill="none" xmlns="http://www.w3.org/2000/svg">
<path d="M8.89243 1.97168C4.10951 10.6142 0.154404 20.3624 0.0256336 23.8636C-0.0479497 25.8354 -0.011158 26.0012 0.798259 26.7752C1.4789 27.4386 1.62607 27.4938 2.30672 27.4017C3.35528 27.2543 3.99913 26.4619 5.17647 23.753C6.70332 20.2702 7.93584 18.8329 10.3641 17.6904C11.4127 17.2113 14.0801 16.5663 14.2456 16.7874C14.2824 16.8243 15.2758 19.183 16.4531 22.0209L18.587 27.1806L20.1507 27.2359C21.0153 27.2727 21.7327 27.2174 21.7327 27.1437C21.7327 26.7752 10.3825 0.110497 10.1985 0.0552139C10.0882 0.0183582 9.49949 0.884455 8.89243 1.97168ZM11.3023 9.85867C12.7923 13.3599 13.9697 16.3083 13.9145 16.4005C13.8593 16.511 13.5834 16.5847 13.3074 16.5847C11.8174 16.5847 9.31553 17.6904 7.91745 18.9435C6.74011 19.9938 5.9307 21.2838 4.73497 23.9558C4.18309 25.1904 3.59443 26.3513 3.41047 26.554C2.71143 27.328 1.09259 27.0884 0.540717 26.1118C0.411946 25.8722 0.319967 25.0614 0.319967 24.14C0.319967 22.2604 0.890238 20.086 2.32511 16.4005C3.83357 12.5122 8.1198 3.50117 8.45093 3.50117C8.52451 3.50117 9.81222 6.35744 11.3023 9.85867Z" fill="#514D43"/>
<path d="M30.1953 0.128988C30.1953 0.534395 41.5455 27.2543 41.6927 27.2175C41.8031 27.1806 43.2748 23.8452 44.9672 19.7912C46.678 15.7556 49.2534 9.63761 50.7067 6.21008C52.1415 2.80098 53.2269 -3.8147e-06 53.1165 -3.8147e-06C53.0062 -3.8147e-06 50.8538 4.92015 48.3336 10.9275C45.795 16.9165 43.6059 22.1683 43.4219 22.5737L43.1092 23.3109L42.5757 22.1131C42.2814 21.4497 40.0555 16.2162 37.6272 10.4668L33.2306 -3.8147e-06H31.7222C30.876 -3.8147e-06 30.1953 0.0552788 30.1953 0.128988Z" fill="#514D43"/>
</svg>
